<svg xmlns="http://www.w3.org/2000/svg" viewBox="0 0 32 32" shape-rendering="crispEdges">
  <rect width="32" height="32" fill="#0a0a0a"/>
  <!-- pixel-logo.html 기준 정확한 8x8 픽셀맵 (4px/cell) -->
  <!-- p1=#3d3566, p2=#7c6dfa, p3=#c4b5fd -->

  <!-- Row 0: _, _, p1, p1, p1, p1, _, _ -->
  <rect x="8"  y="0"  width="4" height="4" fill="#3d3566"/>
  <rect x="12" y="0"  width="4" height="4" fill="#3d3566"/>
  <rect x="16" y="0"  width="4" height="4" fill="#3d3566"/>
  <rect x="20" y="0"  width="4" height="4" fill="#3d3566"/>

  <!-- Row 1: _, p1, p1, p2, p2, p1, p1, _ -->
  <rect x="4"  y="4"  width="4" height="4" fill="#3d3566"/>
  <rect x="8"  y="4"  width="4" height="4" fill="#3d3566"/>
  <rect x="12" y="4"  width="4" height="4" fill="#7c6dfa"/>
  <rect x="16" y="4"  width="4" height="4" fill="#7c6dfa"/>
  <rect x="20" y="4"  width="4" height="4" fill="#3d3566"/>
  <rect x="24" y="4"  width="4" height="4" fill="#3d3566"/>

  <!-- Row 2: p1, p1, p2, p2, p2, p2, p1, p1 -->
  <rect x="0"  y="8"  width="4" height="4" fill="#3d3566"/>
  <rect x="4"  y="8"  width="4" height="4" fill="#3d3566"/>
  <rect x="8"  y="8"  width="4" height="4" fill="#7c6dfa"/>
  <rect x="12" y="8"  width="4" height="4" fill="#7c6dfa"/>
  <rect x="16" y="8"  width="4" height="4" fill="#7c6dfa"/>
  <rect x="20" y="8"  width="4" height="4" fill="#7c6dfa"/>
  <rect x="24" y="8"  width="4" height="4" fill="#3d3566"/>
  <rect x="28" y="8"  width="4" height="4" fill="#3d3566"/>

  <!-- Row 3: p1, p2, p2, p3, p3, p2, p2, p1 -->
  <rect x="0"  y="12" width="4" height="4" fill="#3d3566"/>
  <rect x="4"  y="12" width="4" height="4" fill="#7c6dfa"/>
  <rect x="8"  y="12" width="4" height="4" fill="#7c6dfa"/>
  <rect x="12" y="12" width="4" height="4" fill="#c4b5fd"/>
  <rect x="16" y="12" width="4" height="4" fill="#c4b5fd"/>
  <rect x="20" y="12" width="4" height="4" fill="#7c6dfa"/>
  <rect x="24" y="12" width="4" height="4" fill="#7c6dfa"/>
  <rect x="28" y="12" width="4" height="4" fill="#3d3566"/>

  <!-- Row 4: p1, p2, p2, p3, p3, p2, p2, p1 -->
  <rect x="0"  y="16" width="4" height="4" fill="#3d3566"/>
  <rect x="4"  y="16" width="4" height="4" fill="#7c6dfa"/>
  <rect x="8"  y="16" width="4" height="4" fill="#7c6dfa"/>
  <rect x="12" y="16" width="4" height="4" fill="#c4b5fd"/>
  <rect x="16" y="16" width="4" height="4" fill="#c4b5fd"/>
  <rect x="20" y="16" width="4" height="4" fill="#7c6dfa"/>
  <rect x="24" y="16" width="4" height="4" fill="#7c6dfa"/>
  <rect x="28" y="16" width="4" height="4" fill="#3d3566"/>

  <!-- Row 5: p1, p1, p2, p2, p2, p2, p1, p1 -->
  <rect x="0"  y="20" width="4" height="4" fill="#3d3566"/>
  <rect x="4"  y="20" width="4" height="4" fill="#3d3566"/>
  <rect x="8"  y="20" width="4" height="4" fill="#7c6dfa"/>
  <rect x="12" y="20" width="4" height="4" fill="#7c6dfa"/>
  <rect x="16" y="20" width="4" height="4" fill="#7c6dfa"/>
  <rect x="20" y="20" width="4" height="4" fill="#7c6dfa"/>
  <rect x="24" y="20" width="4" height="4" fill="#3d3566"/>
  <rect x="28" y="20" width="4" height="4" fill="#3d3566"/>

  <!-- Row 6: _, p1, p1, p2, p2, p1, p1, _ -->
  <rect x="4"  y="24" width="4" height="4" fill="#3d3566"/>
  <rect x="8"  y="24" width="4" height="4" fill="#3d3566"/>
  <rect x="12" y="24" width="4" height="4" fill="#7c6dfa"/>
  <rect x="16" y="24" width="4" height="4" fill="#7c6dfa"/>
  <rect x="20" y="24" width="4" height="4" fill="#3d3566"/>
  <rect x="24" y="24" width="4" height="4" fill="#3d3566"/>

  <!-- Row 7: _, _, p1, p1, p1, p1, _, _ -->
  <rect x="8"  y="28" width="4" height="4" fill="#3d3566"/>
  <rect x="12" y="28" width="4" height="4" fill="#3d3566"/>
  <rect x="16" y="28" width="4" height="4" fill="#3d3566"/>
  <rect x="20" y="28" width="4" height="4" fill="#3d3566"/>
</svg>
