<svg xmlns="http://www.w3.org/2000/svg" viewBox="0 0 32 32" shape-rendering="crispEdges">
  <rect width="32" height="32" fill="#07000d"/>
  <!-- pixel-logo: p1=#8b0020, p2=#ff1a3c, p3=#ff6080 -->

  <!-- Row 0: _, _, p1, p1, p1, p1, _, _ -->
  <rect x="8"  y="0"  width="4" height="4" fill="#8b0020"/>
  <rect x="12" y="0"  width="4" height="4" fill="#8b0020"/>
  <rect x="16" y="0"  width="4" height="4" fill="#8b0020"/>
  <rect x="20" y="0"  width="4" height="4" fill="#8b0020"/>

  <!-- Row 1: _, p1, p1, p2, p2, p1, p1, _ -->
  <rect x="4"  y="4"  width="4" height="4" fill="#8b0020"/>
  <rect x="8"  y="4"  width="4" height="4" fill="#8b0020"/>
  <rect x="12" y="4"  width="4" height="4" fill="#ff1a3c"/>
  <rect x="16" y="4"  width="4" height="4" fill="#ff1a3c"/>
  <rect x="20" y="4"  width="4" height="4" fill="#8b0020"/>
  <rect x="24" y="4"  width="4" height="4" fill="#8b0020"/>

  <!-- Row 2: p1, p1, p2, p2, p2, p2, p1, p1 -->
  <rect x="0"  y="8"  width="4" height="4" fill="#8b0020"/>
  <rect x="4"  y="8"  width="4" height="4" fill="#8b0020"/>
  <rect x="8"  y="8"  width="4" height="4" fill="#ff1a3c"/>
  <rect x="12" y="8"  width="4" height="4" fill="#ff1a3c"/>
  <rect x="16" y="8"  width="4" height="4" fill="#ff1a3c"/>
  <rect x="20" y="8"  width="4" height="4" fill="#ff1a3c"/>
  <rect x="24" y="8"  width="4" height="4" fill="#8b0020"/>
  <rect x="28" y="8"  width="4" height="4" fill="#8b0020"/>

  <!-- Row 3: p1, p2, p2, p3, p3, p2, p2, p1 -->
  <rect x="0"  y="12" width="4" height="4" fill="#8b0020"/>
  <rect x="4"  y="12" width="4" height="4" fill="#ff1a3c"/>
  <rect x="8"  y="12" width="4" height="4" fill="#ff1a3c"/>
  <rect x="12" y="12" width="4" height="4" fill="#ff6080"/>
  <rect x="16" y="12" width="4" height="4" fill="#ff6080"/>
  <rect x="20" y="12" width="4" height="4" fill="#ff1a3c"/>
  <rect x="24" y="12" width="4" height="4" fill="#ff1a3c"/>
  <rect x="28" y="12" width="4" height="4" fill="#8b0020"/>

  <!-- Row 4: p1, p2, p2, p3, p3, p2, p2, p1 -->
  <rect x="0"  y="16" width="4" height="4" fill="#8b0020"/>
  <rect x="4"  y="16" width="4" height="4" fill="#ff1a3c"/>
  <rect x="8"  y="16" width="4" height="4" fill="#ff1a3c"/>
  <rect x="12" y="16" width="4" height="4" fill="#ff6080"/>
  <rect x="16" y="16" width="4" height="4" fill="#ff6080"/>
  <rect x="20" y="16" width="4" height="4" fill="#ff1a3c"/>
  <rect x="24" y="16" width="4" height="4" fill="#ff1a3c"/>
  <rect x="28" y="16" width="4" height="4" fill="#8b0020"/>

  <!-- Row 5: p1, p1, p2, p2, p2, p2, p1, p1 -->
  <rect x="0"  y="20" width="4" height="4" fill="#8b0020"/>
  <rect x="4"  y="20" width="4" height="4" fill="#8b0020"/>
  <rect x="8"  y="20" width="4" height="4" fill="#ff1a3c"/>
  <rect x="12" y="20" width="4" height="4" fill="#ff1a3c"/>
  <rect x="16" y="20" width="4" height="4" fill="#ff1a3c"/>
  <rect x="20" y="20" width="4" height="4" fill="#ff1a3c"/>
  <rect x="24" y="20" width="4" height="4" fill="#8b0020"/>
  <rect x="28" y="20" width="4" height="4" fill="#8b0020"/>

  <!-- Row 6: _, p1, p1, p2, p2, p1, p1, _ -->
  <rect x="4"  y="24" width="4" height="4" fill="#8b0020"/>
  <rect x="8"  y="24" width="4" height="4" fill="#8b0020"/>
  <rect x="12" y="24" width="4" height="4" fill="#ff1a3c"/>
  <rect x="16" y="24" width="4" height="4" fill="#ff1a3c"/>
  <rect x="20" y="24" width="4" height="4" fill="#8b0020"/>
  <rect x="24" y="24" width="4" height="4" fill="#8b0020"/>

  <!-- Row 7: _, _, p1, p1, p1, p1, _, _ -->
  <rect x="8"  y="28" width="4" height="4" fill="#8b0020"/>
  <rect x="12" y="28" width="4" height="4" fill="#8b0020"/>
  <rect x="16" y="28" width="4" height="4" fill="#8b0020"/>
  <rect x="20" y="28" width="4" height="4" fill="#8b0020"/>
</svg>
