<svg xmlns="http://www.w3.org/2000/svg" viewBox="0 0 32 32" shape-rendering="crispEdges">

  <!-- pixel eye: 8×8 grid, each cell = 4px -->
  <!-- D=#cc0030 (outer ring), R=#ff1a3c (mid), H=#ff6080 (highlight) -->

  <!-- row 0: . . D D D D . . -->
  <rect x="8"  y="0"  width="4" height="4" fill="#cc0030"/>
  <rect x="12" y="0"  width="4" height="4" fill="#cc0030"/>
  <rect x="16" y="0"  width="4" height="4" fill="#cc0030"/>
  <rect x="20" y="0"  width="4" height="4" fill="#cc0030"/>

  <!-- row 1: . D D R R D D . -->
  <rect x="4"  y="4"  width="4" height="4" fill="#cc0030"/>
  <rect x="8"  y="4"  width="4" height="4" fill="#cc0030"/>
  <rect x="12" y="4"  width="4" height="4" fill="#ff1a3c"/>
  <rect x="16" y="4"  width="4" height="4" fill="#ff1a3c"/>
  <rect x="20" y="4"  width="4" height="4" fill="#cc0030"/>
  <rect x="24" y="4"  width="4" height="4" fill="#cc0030"/>

  <!-- row 2: D D R R R R D D -->
  <rect x="0"  y="8"  width="4" height="4" fill="#cc0030"/>
  <rect x="4"  y="8"  width="4" height="4" fill="#cc0030"/>
  <rect x="8"  y="8"  width="4" height="4" fill="#ff1a3c"/>
  <rect x="12" y="8"  width="4" height="4" fill="#ff1a3c"/>
  <rect x="16" y="8"  width="4" height="4" fill="#ff1a3c"/>
  <rect x="20" y="8"  width="4" height="4" fill="#ff1a3c"/>
  <rect x="24" y="8"  width="4" height="4" fill="#cc0030"/>
  <rect x="28" y="8"  width="4" height="4" fill="#cc0030"/>

  <!-- row 3: D R R H H R R D -->
  <rect x="0"  y="12" width="4" height="4" fill="#cc0030"/>
  <rect x="4"  y="12" width="4" height="4" fill="#ff1a3c"/>
  <rect x="8"  y="12" width="4" height="4" fill="#ff1a3c"/>
  <rect x="12" y="12" width="4" height="4" fill="#ff6080"/>
  <rect x="16" y="12" width="4" height="4" fill="#ff6080"/>
  <rect x="20" y="12" width="4" height="4" fill="#ff1a3c"/>
  <rect x="24" y="12" width="4" height="4" fill="#ff1a3c"/>
  <rect x="28" y="12" width="4" height="4" fill="#cc0030"/>

  <!-- row 4: D R R H H R R D -->
  <rect x="0"  y="16" width="4" height="4" fill="#cc0030"/>
  <rect x="4"  y="16" width="4" height="4" fill="#ff1a3c"/>
  <rect x="8"  y="16" width="4" height="4" fill="#ff1a3c"/>
  <rect x="12" y="16" width="4" height="4" fill="#ff6080"/>
  <rect x="16" y="16" width="4" height="4" fill="#ff6080"/>
  <rect x="20" y="16" width="4" height="4" fill="#ff1a3c"/>
  <rect x="24" y="16" width="4" height="4" fill="#ff1a3c"/>
  <rect x="28" y="16" width="4" height="4" fill="#cc0030"/>

  <!-- row 5: D D R R R R D D -->
  <rect x="0"  y="20" width="4" height="4" fill="#cc0030"/>
  <rect x="4"  y="20" width="4" height="4" fill="#cc0030"/>
  <rect x="8"  y="20" width="4" height="4" fill="#ff1a3c"/>
  <rect x="12" y="20" width="4" height="4" fill="#ff1a3c"/>
  <rect x="16" y="20" width="4" height="4" fill="#ff1a3c"/>
  <rect x="20" y="20" width="4" height="4" fill="#ff1a3c"/>
  <rect x="24" y="20" width="4" height="4" fill="#cc0030"/>
  <rect x="28" y="20" width="4" height="4" fill="#cc0030"/>

  <!-- row 6: . D D R R D D . -->
  <rect x="4"  y="24" width="4" height="4" fill="#cc0030"/>
  <rect x="8"  y="24" width="4" height="4" fill="#cc0030"/>
  <rect x="12" y="24" width="4" height="4" fill="#ff1a3c"/>
  <rect x="16" y="24" width="4" height="4" fill="#ff1a3c"/>
  <rect x="20" y="24" width="4" height="4" fill="#cc0030"/>
  <rect x="24" y="24" width="4" height="4" fill="#cc0030"/>

  <!-- row 7: . . D D D D . . -->
  <rect x="8"  y="28" width="4" height="4" fill="#cc0030"/>
  <rect x="12" y="28" width="4" height="4" fill="#cc0030"/>
  <rect x="16" y="28" width="4" height="4" fill="#cc0030"/>
  <rect x="20" y="28" width="4" height="4" fill="#cc0030"/>
</svg>
